<svg width="30" height="30" viewBox="0 0 30 30" fill="none" xmlns="http://www.w3.org/2000/svg">
<g id="contact me__behance__icon">
<path id="Vector" d="M5.3999 2.40002C3.7439 2.40002 2.3999 3.74402 2.3999 5.40002V24.6C2.3999 26.256 3.7439 27.6 5.3999 27.6H24.5999C26.2559 27.6 27.5999 26.256 27.5999 24.6V5.40002C27.5999 3.74402 26.2559 2.40002 24.5999 2.40002H5.3999ZM7.1999 10.8H11.2382C11.6762 10.8 14.046 10.7702 14.046 12.9422C14.046 14.0942 13.2598 14.4838 12.9058 14.6578C13.4338 14.8258 14.3999 15.312 14.3999 16.8C14.3999 19.098 11.7656 19.2 11.4116 19.2H7.1999V10.8ZM17.3999 10.8H21.5999V12H17.3999V10.8ZM8.9999 12.2578V14.2266H10.9323C11.1963 14.2266 12.0714 14.082 12.0714 13.2C12.0714 12.318 10.9317 12.2578 10.7577 12.2578H8.9999ZM19.6382 12.6C21.9782 12.6 22.6137 14.4239 22.7097 14.8559C22.7997 15.2939 22.7999 15.678 22.7999 16.2H18.0597C18.0597 16.722 18.3363 17.8981 19.7343 17.8981C20.1063 17.8981 20.3816 17.8084 20.6636 17.6344C20.9396 17.4604 21.0365 17.2916 21.1265 17.1176H22.7038C22.4278 17.8076 22.056 18.3305 21.4979 18.6785C20.9399 19.0265 20.292 19.2 19.548 19.2C19.08 19.2 18.6179 19.1104 18.1499 18.9364C17.7779 18.7624 17.4064 18.5041 17.1304 18.2461C16.8544 17.9821 16.6683 17.634 16.4823 17.202C16.2963 16.854 16.1999 16.332 16.1999 15.9C16.1999 15.468 16.3742 12.6 19.6382 12.6ZM19.6382 13.8176C18.2822 13.8176 18.0597 15.1199 18.0597 15.2039H21.0362C20.9402 14.7719 20.5502 13.8176 19.6382 13.8176ZM8.9999 15.4266V17.7422H11.0108C11.1842 17.7422 12.4077 17.6886 12.4077 16.6266C12.4077 15.5706 11.4464 15.4266 11.0108 15.4266H8.9999Z" fill="#E6A6F8"/>
</g>
</svg>
