<svg width="30" height="30" viewBox="0 0 30 30" fill="none" xmlns="http://www.w3.org/2000/svg">
<g id="contact me__likedin--icon">
<path id="Vector" d="M24.5999 2.40002H5.3999C3.7439 2.40002 2.3999 3.74402 2.3999 5.40002V24.6C2.3999 26.256 3.7439 27.6 5.3999 27.6H24.5999C26.2559 27.6 27.5999 26.256 27.5999 24.6V5.40002C27.5999 3.74402 26.2559 2.40002 24.5999 2.40002ZM10.1999 12V23.4H6.5999V12H10.1999ZM6.5999 8.68202C6.5999 7.84202 7.3199 7.20002 8.3999 7.20002C9.4799 7.20002 10.1579 7.84202 10.1999 8.68202C10.1999 9.52202 9.5279 10.2 8.3999 10.2C7.3199 10.2 6.5999 9.52202 6.5999 8.68202ZM23.3999 23.4H19.7999C19.7999 23.4 19.7999 17.844 19.7999 17.4C19.7999 16.2 19.1999 15 17.6999 14.976H17.6519C16.1999 14.976 15.5999 16.212 15.5999 17.4C15.5999 17.946 15.5999 23.4 15.5999 23.4H11.9999V12H15.5999V13.536C15.5999 13.536 16.7579 12 19.0859 12C21.4679 12 23.3999 13.638 23.3999 16.956V23.4Z" fill="#E6A6F8"/>
</g>
</svg>
